<svg xmlns="http://www.w3.org/2000/svg" width="1440" height="810" viewBox="0 0 1440 810" role="img" aria-labelledby="title desc">
  <title id="title">K.skill chat workbench hero</title>
  <desc id="desc">A concrete product illustration of the K.skill workbench with persona chat, Crush Coach reply lab, and prompt stack inspector.</desc>
  <defs>
    <filter id="shadow" x="-20%" y="-20%" width="140%" height="140%">
      <feDropShadow dx="0" dy="24" stdDeviation="28" flood-color="#3b2f20" flood-opacity="0.18"/>
    </filter>
    <linearGradient id="paper" x1="0" y1="0" x2="1" y2="1">
      <stop offset="0" stop-color="#fffaf1"/>
      <stop offset="1" stop-color="#f3eadb"/>
    </linearGradient>
  </defs>
  <rect width="1440" height="810" fill="#f5f1e8"/>
  <path d="M0 120H1440M0 240H1440M0 360H1440M0 480H1440M0 600H1440M0 720H1440M120 0V810M240 0V810M360 0V810M480 0V810M600 0V810M720 0V810M840 0V810M960 0V810M1080 0V810M1200 0V810M1320 0V810" stroke="#1c1c1c" stroke-opacity=".045"/>
  <rect x="92" y="62" width="1256" height="686" rx="34" fill="url(#paper)" stroke="#202020" stroke-opacity=".14" filter="url(#shadow)"/>
  <rect x="92" y="62" width="260" height="686" rx="34" fill="#fff8eb"/>
  <rect x="352" y="62" width="640" height="686" fill="#fbf4e7" stroke="#202020" stroke-opacity=".12"/>
  <rect x="992" y="62" width="356" height="686" rx="34" fill="#fff8eb"/>
  <circle cx="132" cy="102" r="11" fill="#ff7d6e"/>
  <circle cx="164" cy="102" r="11" fill="#ffc857"/>
  <circle cx="196" cy="102" r="11" fill="#2fbf71"/>
  <text x="126" y="168" font-family="Georgia, serif" font-size="46" font-weight="700" fill="#151515">K.skill</text>
  <text x="126" y="198" font-family="-apple-system,BlinkMacSystemFont,Segoe UI,sans-serif" font-size="16" fill="#6b6257">Persona Pack OS</text>
  <g font-family="-apple-system,BlinkMacSystemFont,Segoe UI,sans-serif" font-size="18" font-weight="700">
    <rect x="126" y="245" width="190" height="48" rx="14" fill="#151515"/>
    <text x="154" y="276" fill="#fff7e8">我要追TA</text>
    <rect x="126" y="309" width="190" height="48" rx="14" fill="#fffaf1" stroke="#151515" stroke-opacity=".12"/>
    <text x="154" y="340" fill="#151515">关系记忆</text>
    <rect x="126" y="373" width="190" height="48" rx="14" fill="#fffaf1" stroke="#151515" stroke-opacity=".12"/>
    <text x="154" y="404" fill="#151515">原创角色</text>
    <rect x="126" y="437" width="190" height="48" rx="14" fill="#fffaf1" stroke="#151515" stroke-opacity=".12"/>
    <text x="154" y="468" fill="#151515">精神导师</text>
  </g>
  <text x="392" y="128" font-family="Georgia, serif" font-size="38" font-weight="700" fill="#151515">Crush Coach / 我要追TA</text>
  <text x="392" y="160" font-family="-apple-system,BlinkMacSystemFont,Segoe UI,sans-serif" font-size="16" fill="#6b6257">Upload chat logs. Read the signals. Reply with respect.</text>
  <rect x="392" y="198" width="560" height="372" rx="22" fill="#fffaf1" stroke="#151515" stroke-opacity=".12"/>
  <g font-family="-apple-system,BlinkMacSystemFont,Segoe UI,sans-serif" font-size="18">
    <rect x="426" y="234" width="292" height="58" rx="18" fill="#151515"/>
    <text x="452" y="269" fill="#fff8ea">我：周末那个展你还去吗？</text>
    <rect x="606" y="315" width="306" height="74" rx="18" fill="#dff4e7"/>
    <text x="630" y="347" fill="#151515">TA：在看！周末可能去</text>
    <text x="630" y="373" fill="#151515">你也喜欢这种吗？</text>
    <rect x="426" y="414" width="360" height="92" rx="18" fill="#151515"/>
    <text x="452" y="448" fill="#fff8ea">K.skill：TA 主动反问 + 展开话题</text>
    <text x="452" y="476" fill="#fff8ea">建议：低压力邀约窗口打开</text>
  </g>
  <rect x="392" y="596" width="176" height="86" rx="18" fill="#fff2d8" stroke="#151515" stroke-opacity=".1"/>
  <rect x="582" y="596" width="176" height="86" rx="18" fill="#e2f5ef" stroke="#151515" stroke-opacity=".1"/>
  <rect x="772" y="596" width="180" height="86" rx="18" fill="#ffe8e1" stroke="#151515" stroke-opacity=".1"/>
  <text x="418" y="630" font-family="-apple-system,BlinkMacSystemFont,Segoe UI,sans-serif" font-size="16" font-weight="700" fill="#151515">稳妥版</text>
  <text x="418" y="656" font-family="-apple-system,BlinkMacSystemFont,Segoe UI,sans-serif" font-size="13" fill="#5d554b">接话 + 轻问题</text>
  <text x="608" y="630" font-family="-apple-system,BlinkMacSystemFont,Segoe UI,sans-serif" font-size="16" font-weight="700" fill="#151515">幽默版</text>
  <text x="608" y="656" font-family="-apple-system,BlinkMacSystemFont,Segoe UI,sans-serif" font-size="13" fill="#5d554b">轻松但不油</text>
  <text x="798" y="630" font-family="-apple-system,BlinkMacSystemFont,Segoe UI,sans-serif" font-size="16" font-weight="700" fill="#151515">推进版</text>
  <text x="798" y="656" font-family="-apple-system,BlinkMacSystemFont,Segoe UI,sans-serif" font-size="13" fill="#5d554b">可拒绝邀约</text>
  <text x="1030" y="128" font-family="Georgia, serif" font-size="32" font-weight="700" fill="#151515">Prompt Stack</text>
  <g font-family="-apple-system,BlinkMacSystemFont,Segoe UI,sans-serif">
    <rect x="1030" y="172" width="264" height="74" rx="16" fill="#151515"/>
    <text x="1054" y="205" font-size="16" font-weight="700" fill="#fff8ea">identity</text>
    <text x="1054" y="228" font-size="13" fill="#e9ddcc">voice, persona, boundaries</text>
    <rect x="1030" y="264" width="264" height="74" rx="16" fill="#fffaf1" stroke="#151515" stroke-opacity=".12"/>
    <text x="1054" y="297" font-size="16" font-weight="700" fill="#151515">memory</text>
    <text x="1054" y="320" font-size="13" fill="#6b6257">episodes, facts, corrections</text>
    <rect x="1030" y="356" width="264" height="74" rx="16" fill="#fffaf1" stroke="#151515" stroke-opacity=".12"/>
    <text x="1054" y="389" font-size="16" font-weight="700" fill="#151515">pursuit safety</text>
    <text x="1054" y="412" font-size="13" fill="#6b6257">no PUA, no pressure</text>
    <rect x="1030" y="474" width="264" height="156" rx="18" fill="#e3f5ef"/>
    <text x="1054" y="512" font-size="18" font-weight="700" fill="#151515">Export ready</text>
    <text x="1054" y="542" font-size="14" fill="#3c534b">Codex · Claude · ChatGPT</text>
    <text x="1054" y="568" font-size="14" fill="#3c534b">DeepSeek · SillyTavern</text>
    <text x="1054" y="594" font-size="14" fill="#3c534b">Hermes · Lobe · Open WebUI</text>
  </g>
</svg>
