<svg xmlns="http://www.w3.org/2000/svg" width="1440" height="810" viewBox="0 0 1440 810" role="img" aria-labelledby="title desc">
  <title id="title">K.skill social persona hero</title>
  <desc id="desc">A social-app style hero image showing stories, direct messages, Crush Coach suggestions, character personas, and portable exports.</desc>
  <defs>
    <linearGradient id="sunset" x1="0" y1="0" x2="1" y2="1">
      <stop offset="0" stop-color="#ff6f61"/>
      <stop offset=".42" stop-color="#ffb347"/>
      <stop offset=".72" stop-color="#31c7a2"/>
      <stop offset="1" stop-color="#283044"/>
    </linearGradient>
    <linearGradient id="cream" x1="0" y1="0" x2="1" y2="1">
      <stop offset="0" stop-color="#fffaf2"/>
      <stop offset="1" stop-color="#efe6d8"/>
    </linearGradient>
    <linearGradient id="phone" x1="0" y1="0" x2="0" y2="1">
      <stop offset="0" stop-color="#202020"/>
      <stop offset="1" stop-color="#0d0d0d"/>
    </linearGradient>
    <radialGradient id="storyRing" cx=".28" cy=".2" r="1">
      <stop offset="0" stop-color="#ffe66d"/>
      <stop offset=".42" stop-color="#ff6f61"/>
      <stop offset=".72" stop-color="#31c7a2"/>
      <stop offset="1" stop-color="#293241"/>
    </radialGradient>
    <filter id="deepShadow" x="-20%" y="-20%" width="140%" height="140%">
      <feDropShadow dx="0" dy="38" stdDeviation="34" flood-color="#21170d" flood-opacity=".22"/>
    </filter>
    <filter id="softShadow" x="-20%" y="-20%" width="140%" height="140%">
      <feDropShadow dx="0" dy="18" stdDeviation="22" flood-color="#3a2a1a" flood-opacity=".14"/>
    </filter>
    <clipPath id="phoneClip">
      <rect x="164" y="82" width="404" height="646" rx="54"/>
    </clipPath>
  </defs>

  <rect width="1440" height="810" fill="#f4eee5"/>
  <path d="M0 640 C180 545 230 715 412 608 C574 512 605 358 802 416 C1035 486 1052 155 1440 258 L1440 810 L0 810 Z" fill="#ffe7cc"/>
  <path d="M0 156 C176 92 269 210 426 150 C578 92 754 48 928 111 C1084 166 1228 56 1440 88 L1440 0 L0 0 Z" fill="#dff3e9"/>
  <g opacity=".38">
    <circle cx="1210" cy="650" r="126" fill="#ff6f61"/>
    <circle cx="1100" cy="160" r="86" fill="#31c7a2"/>
    <circle cx="714" cy="706" r="68" fill="#ffb347"/>
  </g>

  <rect x="145" y="62" width="446" height="688" rx="70" fill="url(#phone)" filter="url(#deepShadow)"/>
  <rect x="164" y="82" width="404" height="646" rx="54" fill="#fffaf2"/>
  <g clip-path="url(#phoneClip)">
    <rect x="164" y="82" width="404" height="646" fill="#fffaf2"/>
    <rect x="164" y="82" width="404" height="78" fill="#fffaf2"/>
    <text x="202" y="131" font-family="Georgia,serif" font-size="30" font-weight="700" fill="#151515">K.skill</text>
    <circle cx="515" cy="121" r="16" fill="#151515"/>
    <path d="M510 121 h10 M515 116 v10" stroke="#fffaf2" stroke-width="2" stroke-linecap="round"/>

    <g font-family="-apple-system,BlinkMacSystemFont,Segoe UI,sans-serif">
      <g transform="translate(196 178)">
        <circle cx="28" cy="28" r="28" fill="url(#storyRing)"/>
        <circle cx="28" cy="28" r="22" fill="#fffaf2"/>
        <text x="16" y="36" font-size="22" font-weight="700" fill="#151515">我</text>
        <text x="-6" y="74" font-size="12" fill="#5f574f">my vibe</text>
      </g>
      <g transform="translate(286 178)">
        <circle cx="28" cy="28" r="28" fill="url(#storyRing)"/>
        <circle cx="28" cy="28" r="22" fill="#f8dccd"/>
        <text x="13" y="36" font-size="19" font-weight="700" fill="#151515">TA</text>
        <text x="-2" y="74" font-size="12" fill="#5f574f">signals</text>
      </g>
      <g transform="translate(376 178)">
        <circle cx="28" cy="28" r="28" fill="url(#storyRing)"/>
        <circle cx="28" cy="28" r="22" fill="#dff3e9"/>
        <text x="13" y="36" font-size="18" font-weight="700" fill="#151515">OC</text>
        <text x="-4" y="74" font-size="12" fill="#5f574f">world</text>
      </g>
      <g transform="translate(466 178)">
        <circle cx="28" cy="28" r="28" fill="url(#storyRing)"/>
        <circle cx="28" cy="28" r="22" fill="#ffe9ba"/>
        <text x="11" y="36" font-size="18" font-weight="700" fill="#151515">M</text>
        <text x="-7" y="74" font-size="12" fill="#5f574f">mentor</text>
      </g>
    </g>

    <rect x="198" y="286" width="336" height="250" rx="28" fill="#151515"/>
    <rect x="214" y="302" width="304" height="150" rx="22" fill="url(#sunset)"/>
    <circle cx="252" cy="336" r="20" fill="#fffaf2"/>
    <text x="282" y="332" font-family="-apple-system,BlinkMacSystemFont,Segoe UI,sans-serif" font-size="15" font-weight="700" fill="#fffaf2">TA</text>
    <text x="282" y="352" font-family="-apple-system,BlinkMacSystemFont,Segoe UI,sans-serif" font-size="12" fill="#fffaf2" opacity=".84">weekend exhibition</text>
    <path d="M248 418 C282 360 330 407 356 364 C386 315 435 350 496 314 L496 452 L214 452 L214 438 C226 437 235 435 248 418 Z" fill="#fffaf2" opacity=".9"/>
    <text x="226" y="488" font-family="-apple-system,BlinkMacSystemFont,Segoe UI,sans-serif" font-size="16" font-weight="700" fill="#fffaf2">TA: 周末可能去，你也喜欢这种吗？</text>
    <text x="226" y="516" font-family="-apple-system,BlinkMacSystemFont,Segoe UI,sans-serif" font-size="13" fill="#fffaf2" opacity=".72">K.skill found: active question + open topic window</text>

    <rect x="198" y="566" width="258" height="56" rx="20" fill="#e8f6ee"/>
    <text x="222" y="591" font-family="-apple-system,BlinkMacSystemFont,Segoe UI,sans-serif" font-size="14" font-weight="700" fill="#151515">稳妥版</text>
    <text x="222" y="611" font-family="-apple-system,BlinkMacSystemFont,Segoe UI,sans-serif" font-size="12" fill="#4b5b53">接住兴趣，不施压。</text>
    <rect x="276" y="640" width="258" height="56" rx="20" fill="#ffe7d8"/>
    <text x="300" y="665" font-family="-apple-system,BlinkMacSystemFont,Segoe UI,sans-serif" font-size="14" font-weight="700" fill="#151515">推进版</text>
    <text x="300" y="685" font-family="-apple-system,BlinkMacSystemFont,Segoe UI,sans-serif" font-size="12" fill="#6b4b3f">低压力邀约，给拒绝空间。</text>
  </g>

  <g filter="url(#softShadow)">
    <rect x="636" y="82" width="650" height="190" rx="34" fill="#fffaf2" stroke="#151515" stroke-opacity=".09"/>
    <text x="680" y="142" font-family="Georgia,serif" font-size="52" font-weight="700" fill="#151515">K.skill</text>
    <text x="680" y="184" font-family="-apple-system,BlinkMacSystemFont,Segoe UI,sans-serif" font-size="22" font-weight="700" fill="#151515">把聊天、角色、记忆和心智模型变成可带走的人格系统</text>
    <text x="680" y="224" font-family="-apple-system,BlinkMacSystemFont,Segoe UI,sans-serif" font-size="16" fill="#625a51">Social-style persona OS: crush coach, relationship memory, character worlds, mind mentors.</text>
    <rect x="1110" y="120" width="116" height="44" rx="22" fill="#151515"/>
    <text x="1135" y="148" font-family="-apple-system,BlinkMacSystemFont,Segoe UI,sans-serif" font-size="14" font-weight="700" fill="#fffaf2">Export</text>
    <rect x="1110" y="180" width="116" height="44" rx="22" fill="#31c7a2"/>
    <text x="1136" y="208" font-family="-apple-system,BlinkMacSystemFont,Segoe UI,sans-serif" font-size="14" font-weight="700" fill="#151515">Inspect</text>
  </g>

  <g filter="url(#softShadow)" font-family="-apple-system,BlinkMacSystemFont,Segoe UI,sans-serif">
    <rect x="636" y="306" width="310" height="300" rx="30" fill="#fffaf2" stroke="#151515" stroke-opacity=".09"/>
    <text x="674" y="354" font-size="22" font-weight="800" fill="#151515">Crush Coach / 我要追TA</text>
    <text x="674" y="386" font-size="14" fill="#665e55">上传聊天记录，读懂热度、风险、话题窗口。</text>
    <rect x="674" y="424" width="232" height="44" rx="18" fill="#151515"/>
    <text x="697" y="452" font-size="14" font-weight="700" fill="#fffaf2">Stage: warm · 76%</text>
    <rect x="674" y="486" width="112" height="78" rx="20" fill="#e8f6ee"/>
    <text x="696" y="518" font-size="14" font-weight="800" fill="#151515">Warmth</text>
    <text x="696" y="543" font-size="28" font-weight="800" fill="#151515">3</text>
    <rect x="804" y="486" width="112" height="78" rx="20" fill="#ffe7d8"/>
    <text x="832" y="518" font-size="14" font-weight="800" fill="#151515">Risk</text>
    <text x="848" y="543" font-size="28" font-weight="800" fill="#151515">0</text>

    <rect x="976" y="306" width="310" height="300" rx="30" fill="#151515"/>
    <text x="1014" y="354" font-size="22" font-weight="800" fill="#fffaf2">Persona Pack</text>
    <text x="1014" y="386" font-size="14" fill="#e4d8c8">一个源格式，多平台导出。</text>
    <rect x="1014" y="424" width="106" height="38" rx="19" fill="#fffaf2"/>
    <text x="1042" y="449" font-size="13" font-weight="800" fill="#151515">Codex</text>
    <rect x="1134" y="424" width="106" height="38" rx="19" fill="#31c7a2"/>
    <text x="1158" y="449" font-size="13" font-weight="800" fill="#151515">Claude</text>
    <rect x="1014" y="478" width="106" height="38" rx="19" fill="#ffe7d8"/>
    <text x="1036" y="503" font-size="13" font-weight="800" fill="#151515">ChatGPT</text>
    <rect x="1134" y="478" width="106" height="38" rx="19" fill="#ffe9a8"/>
    <text x="1152" y="503" font-size="13" font-weight="800" fill="#151515">DeepSeek</text>
    <rect x="1014" y="532" width="226" height="38" rx="19" fill="#2f3a4a"/>
    <text x="1048" y="557" font-size="13" font-weight="800" fill="#fffaf2">SillyTavern · Hermes · Lobe</text>
  </g>

  <g filter="url(#softShadow)" font-family="-apple-system,BlinkMacSystemFont,Segoe UI,sans-serif">
    <rect x="636" y="636" width="650" height="96" rx="30" fill="#fffaf2" stroke="#151515" stroke-opacity=".09"/>
    <text x="680" y="672" font-size="18" font-weight="800" fill="#151515">Baseline: ex-skill + nuwa-skill + ST memory + SillyTavern, then more.</text>
    <text x="680" y="704" font-size="15" fill="#625a51">更像社交产品，更强导出，更清晰证据链，更安全的关系建议。</text>
  </g>
</svg>
